<svg id="Layer_1" data-name="Layer 1" xmlns="http://www.w3.org/2000/svg" viewBox="0 0 1015 130.1">
    <title>delltech_logo_prm_blue_gry_rgb</title>
    <path
        d="M1015,84.9c0-12.2-6.8-17.7-20.4-20.4s-21.7-4.1-21.7-13.6c0-6.8,5.4-10.8,14.9-10.8,12.3,0,16.3,5.4,16.3,12.2l1.4,1.3h5.4l1.4-1.3c0-13.6-10.9-19-24.5-19s-23.1,8.1-23.1,17.6,8.2,16.3,21.8,19,20.3,4.1,20.3,15c0,6.8-4,12.2-17.6,12.2s-17.7-6.8-17.7-14.9l-1.3-1.4h-5.5l-1.3,1.4c0,12.2,9.5,21.7,25.8,21.7s25.8-8.1,25.8-19M956.6,71.3l1.3-1.4v-4c0-19.1-10.8-32.6-29.9-32.6s-29.8,13.5-29.8,32.6v2.7c0,19,9.5,35.3,31.2,35.3,19,0,25.8-12.2,27.2-20.4l-1.4-1.3h-5.4l-1.4,1.3c-2.7,8.2-8.1,13.6-19,13.6-17.7,0-23.1-16.3-23.1-24.4l1.4-1.4Zm-8.2-6.8H907.7l-1.4-1.3c0-9.6,5.4-23.1,21.7-23.1s21.8,13.5,21.8,23.1Zm-59.7,36.7V36l-1.4-1.4h-5.4L880.5,36v65.2l1.4,1.3h5.4Zm0-78.8V14.2l-1.4-1.3h-5.4l-1.4,1.3v8.2l1.4,1.4h5.4ZM837,97.1c-13.6,0-21.7-9.5-21.7-28.5s8.1-28.5,21.7-28.5,21.8,9.5,21.8,28.5S850.6,97.1,837,97.1M858.8,93c0,17.7-4.1,31.3-20.4,31.3-12.2,0-16.3-5.4-17.7-12.2l-1.3-1.4h-5.5l-1.3,1.4c1.3,10.8,9.5,19,25.8,19s28.5-10.9,28.5-38.1V36l-1.3-1.4h-4.1L860.1,36l-1.3,8.1h-1.4c-2.7-5.4-9.5-10.8-21.7-10.8-19.1,0-28.6,14.9-28.6,35.3s9.5,35.3,28.6,35.3c12.2,0,19-5.4,21.7-10.9ZM770.5,40.1c13.5,0,23.1,10.8,23.1,28.5S784,97.1,770.5,97.1s-23.1-10.9-23.1-28.5,9.5-28.5,23.1-28.5m0,63.8c17.6,0,31.2-12.2,31.2-35.3s-13.6-35.3-31.2-35.3-31.3,12.2-31.3,35.3,13.6,35.3,31.3,35.3m-40.8-2.7V8.8l-1.4-1.4h-5.4l-1.4,1.4v92.4l1.4,1.3h5.4ZM680.8,40.1c13.6,0,23.1,10.8,23.1,28.5s-9.5,28.5-23.1,28.5-23.1-10.9-23.1-28.5,9.5-28.5,23.1-28.5m0,63.8c17.7,0,31.2-12.2,31.2-35.3s-13.5-35.3-31.2-35.3-31.3,12.2-31.3,35.3,13.6,35.3,31.3,35.3m-39.4-2.7V60.4c0-17.6-9.5-27.1-24.5-27.1-9.5,0-17.6,4-21.7,10.8h-1.4L592.5,36l-1.4-1.4h-4L585.7,36v65.2l1.4,1.3h5.4l1.3-1.3V64.5c0-14.9,6.8-24.4,21.8-24.4,10.9,0,17.6,6.7,17.6,20.3v40.8l1.4,1.3H640Zm-69.3,0V60.4c0-17.6-9.5-27.1-24.4-27.1-9.6,0-17.7,4-21.8,10.8h-1.3V8.8l-1.4-1.4h-5.4l-1.4,1.4v92.4l1.4,1.3h5.4l1.4-1.3V64.5c0-14.9,6.8-24.4,21.7-24.4,10.9,0,17.7,6.7,17.7,20.3v40.8l1.3,1.3h5.5ZM455.3,68.6c0-19,9.5-28.5,23.1-28.5s19,8.1,20.3,16.3l1.4,1.3h5.4l1.4-1.3c-1.4-13.6-12.2-23.1-28.5-23.1s-31.3,10.8-31.3,35.3,13.6,35.3,31.3,35.3,27.1-9.5,28.5-23.1l-1.4-1.3h-5.4l-1.4,1.3c-1.3,8.2-6.7,16.3-20.3,16.3s-23.1-9.5-23.1-28.5m-15,2.7,1.4-1.4v-4c0-19.1-10.9-32.6-29.9-32.6s-29.9,13.5-29.9,32.6v2.7c0,19,9.5,35.3,31.3,35.3,19,0,25.8-12.2,27.1-20.4L439,82.2h-5.5l-1.3,1.3c-2.7,8.2-8.2,13.6-19,13.6-17.7,0-23.1-16.3-23.1-24.4l1.3-1.4Zm-8.1-6.8H391.4l-1.3-1.3c0-9.6,5.4-23.1,21.7-23.1s21.7,13.5,21.7,23.1ZM395.6,12.9V8.8l-1.4-1.4H323.6l-1.4,1.4v4.1l1.4,1.3h29.8l1.4,1.4v85.6l1.4,1.3h5.4l1.4-1.3V15.6l1.3-1.4h29.9Z"
        transform="translate(0 -1)" style="fill:white" />
    <path
        d="M322.2,83.7v18.9H260.9V7.4h21.6V83.7ZM38.6,102.6A47.6,47.6,0,0,0,84.6,67l53.8,42,53.8-42v35.6h61.3V83.7H213.8V7.4H192.2V43L140.6,83.3l-11.6-9L153.7,55l26.9-21L165.3,22,113.7,62.3l-11.5-9L153.7,13,138.4,1,84.6,43a47.6,47.6,0,0,0-46-35.6H0v95.2Zm-17-18.9V26.4h17c14.3,0,25.9,12.8,25.9,28.6S52.9,83.7,38.6,83.7Z"
        transform="translate(0 -1)" style="fill:white" />
</svg>
