<?xml version="1.0" encoding="UTF-8"?>
<svg width="133px" height="25px" viewBox="0 0 133 25" version="1.1" xmlns="http://www.w3.org/2000/svg" xmlns:xlink="http://www.w3.org/1999/xlink">
    <!-- Generator: Sketch 52.4 (67378) - http://www.bohemiancoding.com/sketch -->
    <title>INGRAM_Wordmark_Blue</title>
    <desc>Created with Sketch.</desc>
    <g id="Page-1" stroke="none" stroke-width="1" fill="none" fill-rule="evenodd">
        <g id="INGRAM_Wordmark_Blue" fill="#2F75BB" fill-rule="nonzero">
            <path d="M128.751114,2.21374046 C128.743125,1.3921313 129.250555,0.647474774 130.035099,0.329484192 C130.819643,0.0114936102 131.725428,0.183347803 132.327068,0.764338822 C132.928709,1.34532984 133.106671,2.22002555 132.777379,2.97764229 C132.448086,3.73525903 131.676963,4.2252724 130.826152,4.21755725 C129.68014,4.21755725 128.751114,3.32041791 128.751114,2.21374046 Z M132.407132,2.21374046 C132.407132,1.25954198 131.695691,0.572519084 130.826152,0.572519084 C129.956612,0.572519084 129.245171,1.25954198 129.245171,2.21374046 C129.245171,3.16793893 129.956612,3.83587786 130.826152,3.83587786 C131.695691,3.83587786 132.407132,3.14885496 132.407132,2.21374046 Z M130.035661,1.04961832 L130.905201,1.04961832 C131.478306,1.04961832 131.77474,1.24045802 131.77474,1.71755725 C131.77474,2.19465649 131.557355,2.30916031 131.16211,2.34732824 L131.794502,3.33969466 L131.33997,3.33969466 L130.72734,2.34732824 L130.470431,2.34732824 L130.470431,3.33969466 L130.035661,3.33969466 L130.035661,1.04961832 Z M130.470431,2.02290076 L130.845914,2.02290076 C131.122585,2.02290076 131.33997,2.00381679 131.33997,1.69847328 C131.33997,1.39312977 131.083061,1.3740458 130.865676,1.3740458 L130.470431,1.3740458 L130.470431,2.02290076 Z" id="Shape"></path>
            <path d="M57.784844,13.7977099 L60.1167905,13.7977099 C62.0139673,13.7977099 62.8044577,12.8435115 62.8044577,11.6793893 C62.8044577,10.2099237 61.5001486,9.61832061 60.1167905,9.61832061 L57.784844,9.61832061 L57.784844,13.7977099 Z M79.2071322,9.44656489 L77.0135215,15.9160305 L81.5193165,15.9160305 L79.3257058,9.44656489 L79.2071322,9.44656489 Z M0,5.22900763 L7.82585438,5.22900763 C7.82585438,5.22900763 7.80609212,18.2633588 7.80609212,24.8473282 L0,24.8473282 L0,5.22900763 Z M117.960921,5.22900763 L117.960921,24.8473282 L110.905795,24.8473282 L110.905795,9.48473282 L110.806984,9.48473282 L106.755721,24.8473282 L100.253938,24.8473282 L96.2224368,9.48473282 L96.1236256,9.48473282 L96.1236256,24.8473282 L83.8117385,24.8473282 L82.5667162,20.629771 L75.9463596,20.629771 L74.7210996,24.8473282 L62.9625557,24.8473282 L62.448737,21.240458 C62.1127786,18.7977099 61.3420505,18.2061069 59.8401189,18.2061069 L57.784844,18.2061069 L57.784844,24.8473282 L45.7298663,24.8473282 C49.2080238,24.0839695 52.3304606,22.5572519 54.1288262,21.5076336 L51.5992571,12.2328244 L44.8800892,13.9503817 L46.3029718,19.2175573 C45.8879643,19.5038168 44.484844,19.980916 43.5164933,19.980916 C40.3150074,19.980916 38.7735513,16.870229 38.7735513,14.1793893 C38.7735513,9.86641221 43.338633,8.20610687 47.3503715,8.20610687 C48.2791976,8.20610687 49.4846954,8.28244275 49.6625557,8.30152672 L48.8127786,5.22900763 L62.8439822,5.22900763 C68.4564636,5.22900763 70.6500743,7.80534351 70.6500743,10.5343511 C70.6500743,14.6755725 66.5592868,15.4580153 65.7687964,15.5916031 C65.7490342,15.5916031 65.7490342,15.7061069 65.7687964,15.7061069 C67.4090639,16.0114504 68.6145617,16.7748092 69.3655275,18.110687 C69.3457652,18.0534351 73.6736999,6.29770992 74.068945,5.22900763 L84.8591382,5.22900763 L89.4044577,17.5381679 L89.4637444,17.5381679 L89.4637444,5.22900763 L101.06419,5.22900763 C101.06419,5.22900763 103.751857,15.9732824 103.77162,15.9732824 C104.641159,12.3854962 106.4,5.22900763 106.4,5.22900763 L117.960921,5.22900763 Z M38.0423477,24.8473282 L21.6001486,24.8473282 C20.335364,20.2862595 17.6279346,10.648855 17.6279346,10.648855 L17.5884101,10.648855 L17.5884101,24.8473282 L10.8692422,24.8473282 L10.8692422,5.22900763 L22.5289747,5.22900763 C23.7542348,9.7519084 26.3430906,19.0648855 26.3430906,19.0648855 L26.3826152,19.0648855 L26.3826152,5.22900763 L33.1215453,5.22900763 L33.1215453,8.20610687 C31.3843748,9.95301392 30.4325291,12.2921111 30.4734027,14.7137405 C30.4734027,18.5687023 32.7263001,23.3396947 38.0423477,24.8473282 Z M127.525854,22.3091603 L127.525854,22.9961832 L123.98841,24.0076336 L127.525854,24.0076336 L127.525854,24.8282443 L123.178158,24.8282443 L123.178158,23.3015267 L125.786776,22.5572519 L123.178158,21.7938931 L123.178158,20.2480916 L127.525854,20.2480916 L127.525854,21.240458 L123.98841,21.240458 L127.525854,22.3091603 Z M127.525854,18.0916031 L123.178158,18.0916031 L123.178158,19.0648855 L127.525854,19.0648855 L127.525854,18.0916031 Z M124.798663,13.5687023 C123.751263,13.6832061 123.118871,14.2175573 123.118871,15.2671756 C123.118871,16.3167939 124.146508,17.1564885 125.352006,17.1564885 C126.557504,17.1564885 127.604903,16.5458015 127.604903,15.3053435 C127.604903,14.0648855 127.012036,13.6641221 126.00416,13.5687023 L125.944874,14.5229008 C126.359881,14.5801527 126.774889,14.7900763 126.774889,15.2480916 C126.774889,15.9923664 126.00416,16.0496183 125.411293,16.0496183 C124.818425,16.0496183 123.948886,15.9923664 123.948886,15.3053435 C123.948886,14.6183206 124.383655,14.5992366 124.877712,14.5992366 L124.798663,13.5687023 Z M125.806538,11.6603053 L125.806538,10.9351145 L127.525854,10.3053435 L127.525854,9.19847328 L125.608915,9.98091603 C125.43209,9.53187657 124.979707,9.24063923 124.482467,9.25572519 C123.691976,9.25572519 123.178158,9.77099237 123.178158,10.7633588 L123.178158,12.6335878 L127.525854,12.6335878 L127.525854,11.6603053 L125.806538,11.6603053 Z M123.968648,11.6603053 L123.968648,10.8969466 C123.968648,10.4389313 124.265082,10.2671756 124.502229,10.2671756 C124.739376,10.2671756 125.075334,10.4580153 125.075334,10.8969466 L125.075334,11.6603053 L123.968648,11.6603053 Z M127.604903,6.71755725 C127.604903,5.64885496 126.755126,4.92366412 125.352006,4.92366412 C124.344131,4.92366412 123.118871,5.41984733 123.118871,6.71755725 C123.118871,8.01526718 124.205795,8.51145038 125.352006,8.51145038 C126.498217,8.51145038 127.604903,7.95801527 127.604903,6.71755725 Z M123.948886,6.71755725 C123.948886,6.16412214 124.482467,5.95419847 125.352006,5.95419847 C126.221545,5.95419847 126.774889,6.14503817 126.774889,6.71755725 C126.774889,7.29007634 125.905349,7.48091603 125.352006,7.48091603 C124.482467,7.48091603 123.948886,7.2519084 123.948886,6.71755725 Z" id="Shape"></path>
        </g>
    </g>
</svg>