<?xml version="1.0" encoding="UTF-8"?>
<svg width="88px" height="58px" viewBox="0 0 88 58" version="1.1" xmlns="http://www.w3.org/2000/svg" xmlns:xlink="http://www.w3.org/1999/xlink">
    <!-- Generator: Sketch 52.4 (67378) - http://www.bohemiancoding.com/sketch -->
    <title>intel_logo RGB</title>
    <desc>Created with Sketch.</desc>
    <g id="Page-1" stroke="none" stroke-width="1" fill="none" fill-rule="evenodd">
        <g id="intel_logo-RGB" fill="#007DC3">
            <path d="M41.6944649,51.4871508 C24.3542435,53.0748603 6.26715867,50.5798883 3.73431734,37.0357542 C2.500369,30.3608939 5.55276753,23.2972067 9.57933579,18.922905 L9.57933579,16.5575419 C2.30553506,22.9407821 -1.62361624,30.9765363 0.649446494,40.5027933 C3.53948339,52.6860335 19.0612546,59.6201117 42.7335793,57.3195531 C52.1180812,56.4122905 64.3601476,53.3988827 72.900369,48.7329609 L72.900369,42.0905028 C65.1394834,46.6916201 52.3453875,50.4826816 41.6944649,51.4871508 Z M87.3830258,16.3955307 C83.2590406,-3.62905028 44.2597786,-4.89273743 19.1261993,10.3687151 L19.1261993,12.0536313 C44.2273063,-0.842458101 79.8494465,-0.745251397 83.096679,17.6916201 C84.200738,23.8156425 80.7261993,30.1664804 74.5889299,33.827933 L74.5889299,38.6234637 C81.9926199,35.9340782 89.5911439,27.1530726 87.3830258,16.3955307 Z" id="Shape" fill-rule="nonzero"></path>
            <path d="M71.504059,13.4793296 L66.9254613,13.4793296 L66.9254613,33.698324 C66.9254613,36.0636872 68.0944649,38.1374302 71.504059,38.4614525 L71.504059,13.4793296 Z" id="Path"></path>
            <path d="M17.3402214,20.8670391 L12.7940959,20.8670391 L12.7940959,34.0547486 C12.7940959,36.452514 13.9306273,38.4938547 17.3402214,38.8178771 L17.3402214,20.8670391 Z" id="Path"></path>
            <rect id="Rectangle" x="12.7940959" y="14.0949721" width="4.54612546" height="4.29977654"></rect>
            <path d="M44.5845018,38.6234637 C40.8826568,38.6234637 39.3239852,36.0636872 39.3239852,33.5363128 L39.3239852,16.0067039 L43.8376384,16.0067039 L43.8376384,20.8670391 L47.2472325,20.8670391 L47.2472325,24.4960894 L43.8376384,24.4960894 L43.8376384,33.277095 C43.8376384,34.2815642 44.3247232,34.8648045 45.39631,34.8648045 L47.2472325,34.8648045 L47.2472325,38.6234637 L44.5845018,38.6234637" id="Path"></path>
            <path d="M52.8649446,31.1385475 C52.8649446,33.4391061 54.3261993,35.1240223 56.8590406,35.1240223 C58.8723247,35.1240223 59.8464945,34.5731844 61.0154982,33.4391061 L63.8081181,36.0960894 C62.0221402,37.8458101 60.1387454,38.9150838 56.8265683,38.9150838 C52.5077491,38.9150838 48.3837638,36.5821229 48.3837638,29.7128492 C48.3837638,23.8804469 51.9881919,20.575419 56.7291513,20.575419 C61.4701107,20.575419 64.3276753,24.4312849 64.3276753,29.5184358 L64.3276753,31.1385475 L52.8649446,31.1385475 Z M56.5343173,24.2692737 C55.0081181,24.2692737 53.8066421,25.0793296 53.3195572,26.1486034 C53.0282505,26.7559882 52.8731127,27.4194295 52.8649446,28.0927374 L59.8140221,28.0927374 C59.7166052,26.1486034 58.8398524,24.2692737 56.5343173,24.2692737 Z" id="Shape" fill-rule="nonzero"></path>
            <path d="M29.5822878,24.4960894 C30.9136531,24.4960894 31.4656827,25.1441341 31.4656827,26.2134078 L31.4656827,38.6558659 L35.9793358,38.6558659 L35.9793358,26.1810056 C35.9793358,23.6536313 34.6154982,20.8670391 30.6538745,20.8670391 L21.3343173,20.8670391 L21.3343173,38.6558659 L25.8479705,38.6558659 L25.8479705,24.4960894 L29.5822878,24.4960894 Z" id="Path"></path>
            <path d="M76.3749077,17.1083799 C75.3706054,17.1083799 74.5564576,16.2959893 74.5564576,15.2938547 C74.5564576,14.2917202 75.3706054,13.4793296 76.3749077,13.4793296 C77.3792101,13.4793296 78.1933579,14.2917202 78.1933579,15.2938547 C78.1933579,16.2959893 77.3792101,17.1083799 76.3749077,17.1083799 Z M76.3749077,13.803352 C75.5544092,13.8211546 74.9019784,14.4961516 74.9138084,15.3149876 C74.9256384,16.1338235 75.5972978,16.7897735 76.4179697,16.7839678 C77.2386415,16.7781622 77.9009131,16.1127758 77.901107,15.2938547 C77.8834394,14.4654581 77.2052842,13.8031644 76.3749077,13.803352 Z M77.1867159,16.3631285 L76.7645756,16.3631285 L76.3099631,15.5530726 C76.3099631,15.5206704 76.2774908,15.5206704 76.2450185,15.5206704 L76.0501845,15.5206704 L76.0501845,16.298324 C76.0501845,16.3307263 76.0177122,16.3631285 75.9527675,16.3631285 L75.6605166,16.3631285 C75.6246487,16.3631285 75.595572,16.3341145 75.595572,16.298324 L75.595572,14.3541899 C75.595572,14.224581 75.6280443,14.1921788 75.7254613,14.1597765 L76.2774908,14.1597765 C76.8619926,14.1597765 77.1867159,14.3217877 77.1867159,14.8726257 C77.2102416,15.1445479 77.0306636,15.3926577 76.7645756,15.4558659 L77.2516605,16.2659218 C77.2516605,16.3307263 77.2516605,16.3631285 77.1867159,16.3631285 Z M76.7321033,14.8402235 C76.7321033,14.6134078 76.602214,14.5486034 76.3099631,14.5486034 L76.0177122,14.5486034 L76.0177122,15.1642458 L76.3099631,15.1642458 C76.602214,15.1642458 76.7321033,15.0670391 76.7321033,14.8726257 L76.7321033,14.8402235 Z" id="Shape" fill-rule="nonzero"></path>
        </g>
    </g>
</svg>