<?xml version="1.0" encoding="UTF-8"?>
<svg width="156px" height="34px" viewBox="0 0 156 34" version="1.1" xmlns="http://www.w3.org/2000/svg" xmlns:xlink="http://www.w3.org/1999/xlink">
    <!-- Generator: Sketch 52.4 (67378) - http://www.bohemiancoding.com/sketch -->
    <title>msft-logo</title>
    <desc>Created with Sketch.</desc>
    <g id="Page-1" stroke="none" stroke-width="1" fill="none" fill-rule="evenodd">
        <g id="msft-logo">
            <polygon id="Path" fill="#F25022" points="0 0 15.8328358 0 15.8328358 16.184 0 16.184"></polygon>
            <path d="M17.4294243,0 L33.2622601,0 L33.2622601,16.184 L17.4626866,16.184 C17.4294243,10.778 17.4294243,5.406 17.4294243,0 Z" id="Path" fill="#80BA01"></path>
            <path d="M69.4515991,6.358 C70.1621683,6.2415573 70.8807287,6.51216171 71.347548,7.072 C71.8871192,7.69192087 71.9807369,8.59417914 71.5803838,9.316 C71.1099558,10.1239132 70.1791097,10.5238155 69.2852878,10.302 C68.3770206,10.1226675 67.7211219,9.30957312 67.7219616,8.364 C67.7296534,7.34847217 68.4669436,6.49337733 69.4515991,6.358 Z" id="Path" fill="#777777"></path>
            <path d="M43.2076759,6.8 L48.1970149,6.8 C49.7270789,10.812 51.2904051,14.858 52.8537313,18.87 C53.2528785,19.856 53.6187633,20.876 54.0179104,21.896 L60.0383795,6.8 L64.828145,6.8 L64.828145,27.2 L61.3688699,27.2 L61.3688699,12.138 C61.3735629,11.910814 61.3624475,11.6835744 61.3356077,11.458 C61.2690832,11.56 61.2358209,11.696 61.1692964,11.798 C59.1735608,16.9433333 57.1889126,22.0773333 55.2153518,27.2 L52.7539446,27.2 C50.6916844,22.066 48.6959488,16.932 46.666951,11.798 C46.6048934,11.6881785 46.549356,11.5746401 46.5006397,11.458 C46.4341151,13.668 46.4673774,15.878 46.4673774,18.088 L46.4673774,27.2 L43.2076759,27.2 L43.2076759,6.8 Z" id="Path" fill="#777777"></path>
            <path d="M78.8648188,12.58 C80.5292529,12.1041243 82.2895105,12.1041243 83.9539446,12.58 C84.2887179,12.6806688 84.6120707,12.8174376 84.9185501,12.988 L84.9185501,16.354 C83.8367731,15.4245701 82.4326777,14.9829586 81.0268657,15.13 C79.8943086,15.2222416 78.8538776,15.8034607 78.1663113,16.728 C77.3014925,17.884 77.101919,19.38 77.2682303,20.774 C77.3377969,21.8917298 77.8262512,22.9390169 78.6319829,23.698 C79.5416101,24.4420488 80.6985319,24.7956041 81.8584222,24.684 C82.9660884,24.5141662 84.0164984,24.0706783 84.9185501,23.392 L84.9185501,26.554 C83.5215352,27.404 81.8584222,27.608 80.2618337,27.54 C78.5902835,27.4753996 76.9969136,26.7997866 75.7714286,25.636 C74.5191364,24.3182443 73.7850663,22.5754927 73.7091684,20.74 C73.6426439,18.87 74.0085288,16.898 75.0729211,15.3 C75.9974053,13.9788367 77.3349656,13.0193794 78.8648188,12.58 Z" id="Path" fill="#777777"></path>
            <path d="M116.251599,12.342 C117.85342,12.0826937 119.493788,12.2585766 121.008102,12.852 L121.008102,16.082 C119.959596,15.3268663 118.697489,14.9446144 117.415778,14.994 C116.783795,14.994 116.052026,15.3 115.785928,15.912 C115.518366,16.557949 115.725813,17.3071861 116.284861,17.714 C117.249467,18.36 118.413646,18.632 119.411514,19.244 C120.244152,19.6535892 120.930418,20.3194069 121.373987,21.148 C122.105757,22.746 121.806397,24.888 120.475906,26.078 C119.145416,27.268 117.382516,27.608 115.719403,27.54 C114.515794,27.4917254 113.331471,27.2150189 112.226866,26.724 L112.226866,23.358 C113.156728,24.0441692 114.225067,24.5088646 115.353518,24.718 C116.143174,24.8896632 116.964864,24.8186844 117.715139,24.514 C118.413646,24.14 118.513433,23.12 118.114286,22.508 C117.694355,22.0683133 117.18269,21.7312599 116.617484,21.522 C115.619616,21.046 114.555224,20.672 113.657143,19.958 C113.01703,19.4779114 112.568155,18.7775911 112.393177,17.986 C112.127079,16.83 112.193603,15.504 112.858849,14.484 C113.654899,13.3250136 114.881344,12.5507021 116.251599,12.342 Z" id="Path" fill="#777777"></path>
            <path d="M92.5688699,12.818 C93.5430342,12.2540487 94.7100011,12.1546446 95.7620469,12.546 L95.7620469,16.048 C95.073509,15.5886425 94.2516492,15.3846211 93.4336887,15.47 C92.4785696,15.6563244 91.678844,16.3205132 91.3049041,17.238 C90.9059978,18.1799219 90.7348623,19.2061851 90.8059701,20.23 L90.8059701,27.2 L87.4464819,27.2 L87.4464819,12.58 L90.8059701,12.58 L90.8059701,15.096 C91.1280722,14.156642 91.7487229,13.3546439 92.5688699,12.818 Z" id="Path" fill="#777777"></path>
            <polygon id="Path" fill="#777777" points="68.021322 12.58 71.4140725 12.58 71.4140725 27.2 68.021322 27.2"></polygon>
            <path d="M109.965032,16.014 C109.369094,14.6444191 108.304625,13.5442514 106.971429,12.92 C105.441365,12.206 103.711727,12.104 102.048614,12.308 C100.295978,12.5166348 98.6885885,13.4050937 97.558209,14.79 C96.5855944,16.0661712 96.0377974,17.6268742 95.9948827,19.244 C95.7755679,21.1591252 96.2103304,23.0928889 97.2255864,24.718 C98.1770233,26.0672766 99.5898409,27.0017286 101.183795,27.336 C102.508735,27.6414349 103.883589,27.6414349 105.208529,27.336 C106.768022,27.0225996 108.162928,26.1405099 109.133475,24.854 C110.041379,23.6246476 110.563273,22.1427904 110.630277,20.604 C110.779524,19.0414019 110.551086,17.4652486 109.965032,16.014 Z M106.638806,22.712 C106.310721,23.4704801 105.717715,24.0766386 104.975693,24.412 C104.07576,24.733434 103.101736,24.7689921 102.181663,24.514 C101.239532,24.2620404 100.450721,23.6045908 100.019616,22.712 C99.5203749,21.559854 99.3475082,20.2876084 99.5206823,19.04 C99.5706615,17.9017127 100.033049,16.8231178 100.81791,16.014 C101.447296,15.4531596 102.245412,15.129232 103.079744,15.096 C104.126657,14.9973455 105.165611,15.3554608 105.940299,16.082 C106.738593,16.898 107.037953,18.054 107.13774,19.142 C107.256064,20.3557275 107.084867,21.5806873 106.638806,22.712 Z" id="Shape" fill="#777777" fill-rule="nonzero"></path>
            <path d="M137.373134,16.422 C136.847106,14.9547629 135.802927,13.7418787 134.446055,13.022 C132.882729,12.206 131.053305,12.104 129.35693,12.308 C126.159466,12.6167421 123.622853,15.1953685 123.303198,18.462 C123.103625,20.162 123.170149,21.964 123.835394,23.528 C124.502796,25.1122425 125.759375,26.3599925 127.327932,26.996 C128.870617,27.572141 130.536605,27.7130738 132.150959,27.404 C133.810703,27.1422099 135.309911,26.242194 136.342004,24.888 C137.398612,23.4623551 137.949861,21.7119829 137.90533,19.924 C137.945529,18.7328086 137.764957,17.5445929 137.373134,16.422 Z M134.279744,21.386 C134.160826,22.1597412 133.86448,22.8937383 133.414925,23.528 C132.893555,24.1347494 132.170646,24.5223917 131.385928,24.616 C130.56773,24.7638273 129.72524,24.6694519 128.957783,24.344 C128.134034,23.9691324 127.480191,23.288636 127.128358,22.44 C126.765512,21.4180006 126.629182,20.3264005 126.729211,19.244 C126.777526,18.1855361 127.136868,17.1665408 127.760341,16.32 C128.41113,15.585863 129.320291,15.145656 130.288273,15.096 C131.224652,14.9713004 132.170834,15.2357537 132.914864,15.8301196 C133.658895,16.4244855 134.138586,17.2990854 134.246482,18.258 C134.440828,19.2902078 134.452094,20.3497179 134.279744,21.386 Z" id="Shape" fill="#777777" fill-rule="nonzero"></path>
            <path d="M155.833689,15.436 L155.833689,12.58 L152.440938,12.58 C152.407676,11.118 152.440938,9.656 152.407676,8.194 C151.276759,8.568 150.179104,8.942 149.048188,9.248 C149.014925,10.37 149.048188,11.492 149.014925,12.58 L144.025586,12.58 C143.981203,11.7068918 144.003445,10.8315758 144.092111,9.962 C144.157997,9.25100592 144.588724,8.62943466 145.223028,8.33 C146.054584,7.99 146.952665,8.228 147.750959,8.568 C147.750959,7.582 147.750959,6.562 147.717697,5.576 C146.087846,5.1 144.191898,5.202 142.728358,6.154 C141.791563,6.79969671 141.108235,7.76312189 140.799147,8.874 C140.466525,10.064 140.632836,11.356 140.566311,12.58 L138.204691,12.58 L138.204691,15.402 L140.599574,15.402 C140.566311,19.346 140.599574,23.29 140.599574,27.2 L144.025586,27.2 L144.025586,15.402 L149.014925,15.402 L149.014925,22.916 C149.048188,24.106 149.247761,25.33 149.979531,26.282 C150.68155,27.0657908 151.6676,27.5205842 152.707036,27.54 C153.773965,27.6231181 154.845055,27.4484086 155.833689,27.03 L155.833689,24.174 C155.068657,24.684 154.037527,24.888 153.20597,24.412 C152.764876,24.0874718 152.494873,23.5731238 152.4742,23.018 C152.374414,22.134 152.440938,21.216 152.407676,20.298 C152.407676,18.666 152.440938,17.034 152.407676,15.402 C153.538593,15.402 154.702772,15.368 155.833689,15.436 Z" id="Path" fill="#777777"></path>
            <polygon id="Path" fill="#02A4EF" points="0 17.816 15.8328358 17.816 15.8328358 34 0 34"></polygon>
            <path d="M17.4626866,17.85 L33.2622601,17.85 L33.2622601,34 L17.4294243,34 C17.4626866,28.628 17.4294243,23.222 17.4626866,17.85 Z" id="Path" fill="#FFB902"></path>
        </g>
    </g>
</svg>