<?xml version="1.0" encoding="UTF-8"?>
<svg width="123px" height="28px" viewBox="0 0 123 28" version="1.1" xmlns="http://www.w3.org/2000/svg" xmlns:xlink="http://www.w3.org/1999/xlink">
    <!-- Generator: Sketch 52.4 (67378) - http://www.bohemiancoding.com/sketch -->
    <title>Tech-Data-CMYK</title>
    <desc>Created with Sketch.</desc>
    <g id="Page-1" stroke="none" stroke-width="1" fill="none" fill-rule="evenodd">
        <g id="Tech-Data-CMYK">
            <path d="M17.425,5.55333333 L15.7477273,5.55333333 L15.0954545,8.07333333 L15.9340909,8.07333333 C16.9125,8.07333333 17.6579545,8.72666667 17.425,9.8 C17.1920455,10.8733333 17.1920455,10.92 16.8659091,12.18 C16.5397727,13.44 15.7943182,14.14 14.5829545,14.56 L5.31136364,17.5 L4.37954545,21.2333333 L15.2818182,17.78 C18.1238636,16.8466667 19.6613636,15.7266667 20.1738636,13.9066667 C20.3136364,13.3466667 20.6397727,12.1333333 20.9659091,10.64 C21.6647727,7.46666667 19.5215909,5.55333333 17.425,5.55333333 Z" id="Path" fill="#00B9E7"></path>
            <path d="M5.21818182,5.55333333 L4.56590909,8.07333333 L7.6875,8.07333333 L5.59090909,16.38 L9.64431818,15.0733333 L11.2284091,8.77333333 C11.275,8.49333333 10.9022727,8.07333333 10.9022727,8.07333333 L14.0704545,8.07333333 L14.7227273,5.55333333 L5.21818182,5.55333333 Z" id="Path" fill="#00B9E7"></path>
            <polygon id="Path" fill="#00B9E7" points="117.269318 27.6266667 0 26.3666667 0 26.32 116.197727 26.32 122.720455 0 122.767045 0"></polygon>
            <path d="M114.660227,6.72 C114.846591,6.72 114.986364,6.67333333 114.986364,6.48666667 C114.986364,6.3 114.846591,6.25333333 114.706818,6.25333333 L114.380682,6.25333333 L114.380682,6.72 L114.660227,6.72 Z M114.380682,7.51333333 L114.194318,7.51333333 L114.194318,6.06666667 L114.706818,6.06666667 C115.079545,6.06666667 115.219318,6.20666667 115.219318,6.48666667 C115.235466,6.58979863 115.20143,6.69444937 115.127733,6.768266 C115.054036,6.84208264 114.949555,6.87617374 114.846591,6.86 L115.265909,7.51333333 L115.032955,7.51333333 L114.660227,6.90666667 L114.380682,6.90666667 L114.380682,7.51333333 Z M114.660227,7.84 C114.940343,7.84029 115.208373,7.72574138 115.401995,7.52298913 C115.595617,7.32023689 115.69796,7.04694752 115.685227,6.76666667 C115.685227,6.19965432 115.226319,5.74 114.660227,5.74 C114.094135,5.74 113.635227,6.19965432 113.635227,6.76666667 C113.622495,7.04694752 113.724838,7.32023689 113.91846,7.52298913 C114.112082,7.72574138 114.380112,7.84029 114.660227,7.84 Z M113.402273,6.76666667 C113.402273,6.07078788 113.965478,5.50666667 114.660227,5.50666667 C115.354976,5.50666667 115.918182,6.07078788 115.918182,6.76666667 C115.918182,7.46254545 115.354976,8.02666667 114.660227,8.02666667 C114.322709,8.03993973 113.994986,7.91145748 113.75614,7.67222364 C113.517295,7.4329898 113.389021,7.10473395 113.402273,6.76666667 Z" id="Shape" fill="#0067AC" fill-rule="nonzero"></path>
            <path d="M42.2113636,8.63333333 L40.5806818,8.63333333 C36.3875,8.63333333 35.5022727,11.34 34.85,13.9533333 C34.4306818,15.5866667 34.3840909,17.2666667 34.9431818,18.5266667 C35.5022727,19.7866667 36.7136364,20.4866667 38.6238636,20.4866667 L43.5159091,20.4866667 L44.1215909,17.92 L39.9284091,17.92 C38.1113636,17.92 37.3193182,17.5 37.925,14.98 L44.8670455,14.98 L45.2863636,13.2533333 C45.8454545,10.92 44.6806818,8.63333333 42.2113636,8.63333333 Z M42.5840909,13.02 L38.4375,13.02 C38.8568182,11.2933333 39.4159091,10.8733333 40.7204545,10.8733333 L41.0931818,10.8733333 C43.1897727,10.8733333 42.5840909,13.02 42.5840909,13.02 Z" id="Shape" fill="#0067AC" fill-rule="nonzero"></path>
            <path d="M67.8829545,11.5266667 C67.6034091,12.6933333 65.6465909,20.4866667 65.6465909,20.4866667 L62.2454545,20.4866667 C62.2454545,20.4866667 64.1090909,13.0666667 64.3420455,11.9933333 C64.575,10.92 64.2022727,10.92 63.55,10.92 L60.7545455,10.92 C60.9620756,11.1288941 61.0647368,11.4202404 61.0340909,11.7133333 L58.8443182,20.4866667 L55.4431818,20.4866667 L58.8443182,6.95333333 C58.9840909,6.25333333 58.2852273,5.55333333 58.2852273,5.55333333 L62.5715909,5.55333333 L61.8261364,8.63333333 L65.7397727,8.63333333 C67.8363636,8.63333333 68.3022727,9.89333333 67.8829545,11.5266667 Z" id="Path" fill="#0067AC"></path>
            <path d="M33.2193182,8.07333333 C33.2193182,8.07333333 33.6386364,8.44666667 33.5454545,8.82 C33.4522727,9.19333333 30.6102273,20.4866667 30.6102273,20.4866667 L26.7431818,20.4866667 L29.8181818,8.07333333 L25.2988636,8.07333333 L25.9045455,5.55333333 L38.4375,5.55333333 L37.8318182,8.07333333 L33.2193182,8.07333333 Z" id="Path" fill="#0067AC"></path>
            <path d="M80.9284091,5.55333333 L72.4022727,5.55333333 C72.759859,5.92842489 72.945528,6.43561834 72.9147727,6.95333333 L69.5602273,20.4866667 L77.7136364,20.4866667 C80.6022727,20.4866667 81.8602273,19.04 82.6056818,17.22 C83.3511364,15.4 84.1431818,12.1333333 84.4693182,10.64 C85.1681818,7.42 83.025,5.55333333 80.9284091,5.55333333 Z M80.8818182,9.8 C80.6488636,10.8266667 79.6704545,14.6533333 79.3443182,15.96 C79.0181818,17.2666667 78.4125,17.92 77.0613636,17.92 L74.0795455,17.92 L76.3159091,8.86666667 C76.3343902,8.57513804 76.2334437,8.28865786 76.0363636,8.07333333 L79.2977273,8.07333333 C80.3227273,8.07333333 81.1613636,8.72666667 80.8818182,9.8 Z" id="Shape" fill="#0067AC" fill-rule="nonzero"></path>
            <path d="M92.9488636,8.63333333 L86.7522727,8.63333333 L86.1931818,10.92 L90.8056818,10.92 C91.3181818,10.92 91.7840909,11.2466667 91.5977273,11.9 L91.4579545,12.46 L88.9420455,12.46 C87.1715909,12.46 84.8420455,13.16 84.05,16.0533333 C84.0414982,16.1974146 84.0100402,16.339206 83.9568182,16.4733333 C83.9181113,16.7202263 83.9025132,16.970201 83.9102273,17.22 C83.9590378,19.0034868 85.3909993,20.4377767 87.1715909,20.4866667 L92.8556818,20.4866667 C92.8556818,20.4866667 94.6727273,13.1133333 95.0454545,11.48 C95.4181818,9.84666667 94.9522727,8.63333333 92.9488636,8.63333333 Z M90.1068182,17.92 L88.1965909,17.92 C87.2181818,17.92 86.3795455,17.5466667 86.7522727,16.1933333 C86.8970678,15.1716827 87.8246141,14.4490848 88.8488636,14.56 L90.9454545,14.56 L90.1068182,17.92 Z" id="Shape" fill="#0067AC" fill-rule="nonzero"></path>
            <path d="M111.538636,8.63333333 L105.342045,8.63333333 L104.782955,10.92 L109.395455,10.92 C109.650141,10.8975042 109.900005,10.9995338 110.066396,11.1939721 C110.232787,11.3884103 110.295238,11.6513414 110.234091,11.9 L110.094318,12.46 L107.531818,12.46 C105.761364,12.46 103.431818,13.16 102.686364,16.0533333 C102.633142,16.1874606 102.601684,16.3292521 102.593182,16.4733333 C102.539373,16.7188415 102.508182,16.9687793 102.5,17.22 C102.548811,19.0034868 103.980772,20.4377767 105.761364,20.4866667 L111.445455,20.4866667 C111.445455,20.4866667 113.2625,13.1133333 113.681818,11.48 C114.101136,9.84666667 113.588636,8.63333333 111.538636,8.63333333 Z M108.743182,17.92 L106.786364,17.92 C105.807955,17.92 105.015909,17.5466667 105.342045,16.1933333 C105.668182,14.84 106.6,14.56 107.485227,14.56 L109.535227,14.56 L108.743182,17.92 Z" id="Shape" fill="#0067AC" fill-rule="nonzero"></path>
            <path d="M49.6659091,13.9533333 C50.2715909,11.7133333 51.25,10.92 52.6011364,10.92 L56.3284091,10.92 L56.8875,8.63333333 L52.0420455,8.63333333 C47.8022727,8.63333333 46.9170455,11.34 46.2647727,13.9533333 C45.8454545,15.5866667 45.7988636,17.2666667 46.4045455,18.5266667 C47.0102273,19.7866667 48.175,20.4866667 50.0852273,20.4866667 L53.9522727,20.4866667 L54.5579545,17.92 L51.2965909,17.92 C49.2465909,17.92 49.1068182,16.24 49.6659091,13.9533333 Z" id="Path" fill="#0067AC"></path>
            <path d="M99.7045455,17.92 L101.521591,17.92 L100.869318,20.4866667 L96.7693182,20.4866667 C96.0238636,20.4866667 95.2784091,19.88 95.6045455,18.6666667 L97.5147727,10.92 L96.0238636,10.92 L96.5829545,8.63333333 L98.1204545,8.63333333 L98.3068182,7.74666667 C98.4931818,7.09333333 97.7943182,6.34666667 97.7943182,6.34666667 L102.034091,6.34666667 L101.428409,8.63333333 L103.618182,8.63333333 L103.0125,10.92 L100.403409,10.92 C100.403409,10.92 100.776136,11.34 100.682955,11.6666667 L99.2852273,17.22 C99.2386364,17.5466667 99.2386364,17.92 99.7045455,17.92 Z" id="Path" fill="#0067AC"></path>
        </g>
    </g>
</svg>